<?xml version="1.0" encoding="UTF-8"?>
<svg width="24px" height="24px" viewBox="0 0 24 24" version="1.1" xmlns="http://www.w3.org/2000/svg" xmlns:xlink="http://www.w3.org/1999/xlink">
    <title>icons_outlined_easyRead</title>
    <g id="icons_outlined_easyRead" stroke="none" stroke-width="1" fill="none" fill-rule="evenodd">
        <g fill="#000000" id="Group-19" transform="translate(1.300000, 2.100000)">
            <path d="M10.7,17.8 C14.7343177,17.8 18.0862248,15.8498748 20.0478722,12.3 C18.0862248,8.75012523 14.7343177,6.8 10.7,6.8 C6.66568232,6.8 3.31377515,8.75012523 1.35212783,12.3 C3.31377515,15.8498748 6.66568232,17.8 10.7,17.8 Z M10.7,5.6 C15.5077906,5.6 19.3720633,8.14762755 21.3999998,12.3 C19.3720633,16.4523724 15.5077906,19.0000002 10.7,19.0000002 C5.8922094,19.0000002 2.0279367,16.4523724 0,12.3 C2.0279367,8.14762755 5.8922094,5.6 10.7,5.6 Z M10.7,15.1 C12.2463973,15.1 13.5,13.8463973 13.5,12.3 C13.5,10.7536027 12.2463973,9.5 10.7,9.5 C9.1536027,9.5 7.9,10.7536027 7.9,12.3 C7.9,13.8463973 9.1536027,15.1 10.7,15.1 Z M10.7,16.3 C8.490861,16.3 6.7,14.509139 6.7,12.3 C6.7,10.090861 8.490861,8.3 10.7,8.3 C12.909139,8.3 14.7,10.090861 14.7,12.3 C14.7,14.509139 12.909139,16.3 10.7,16.3 Z" id="Combined-Shape" fill-opacity="0.9"></path>
            <path d="M10.4,0 C10.7077015,0 10.9613043,0.231624114 10.9959634,0.530027325 L11,0.6 L11,3.6 C11,3.93137085 10.7313708,4.2 10.4,4.2 C10.0922985,4.2 9.8386957,3.96837589 9.80403664,3.66997268 L9.8,3.6 L9.8,0.6 C9.8,0.26862915 10.0686292,0 10.4,0 Z" id="直线" fill-rule="nonzero"></path>
            <path d="M16.4,1.8 C16.7077015,1.8 16.9613043,2.03162411 16.9959634,2.33002732 L17,2.4 L17,4.8 C17,5.13137085 16.7313708,5.4 16.4,5.4 C16.0922985,5.4 15.8386957,5.16837589 15.8040366,4.86997268 L15.8,4.8 L15.8,2.4 C15.8,2.06862915 16.0686292,1.8 16.4,1.8 Z" id="路径" fill-rule="nonzero" transform="translate(16.400000, 3.600000) rotate(45.000000) translate(-16.400000, -3.600000) "></path>
            <path d="M4.4,1.8 C4.7077015,1.8 4.9613043,2.03162411 4.99596336,2.33002732 L5,2.4 L5,4.8 C5,5.13137085 4.73137085,5.4 4.4,5.4 C4.0922985,5.4 3.8386957,5.16837589 3.80403664,4.86997268 L3.8,4.8 L3.8,2.4 C3.8,2.06862915 4.06862915,1.8 4.4,1.8 Z" id="路径备份" fill-rule="nonzero" transform="translate(4.400000, 3.600000) scale(-1, 1) rotate(45.000000) translate(-4.400000, -3.600000) "></path>
        </g>
    </g>
</svg>