<?xml version="1.0" encoding="UTF-8"?>
<svg width="24px" height="24px" viewBox="0 0 24 24" version="1.1" xmlns="http://www.w3.org/2000/svg" xmlns:xlink="http://www.w3.org/1999/xlink">
    <title>icons_filled_share</title>
    <defs>
        <filter color-interpolation-filters="auto" id="filter-1">
            <feColorMatrix in="SourceGraphic" type="matrix" values="0 0 0 0 0.000000 0 0 0 0 0.000000 0 0 0 0 0.000000 0 0 0 1.000000 0"></feColorMatrix>
        </filter>
    </defs>
    <g id="icons_filled_share" stroke="none" stroke-width="1" fill="none" fill-rule="evenodd">
        <g filter="url(#filter-1)" id="编组">
            <g>
                <rect id="矩形" fill="#D8D8D8" opacity="0" x="0" y="0" width="24" height="24"></rect>
                <path d="M14.050097,3 C14.3094198,3 14.5593016,3.0915694 14.7565134,3.25680223 L14.8279145,3.32218254 L20.2672543,8.76152237 C20.8660583,9.36032628 20.8910084,10.3156772 20.3421048,10.9441934 L20.2672543,11.0242641 L14.8279145,16.4636039 C14.3983378,16.8931806 13.7018563,16.8931806 13.2722796,16.4636039 C13.0889107,16.280235 12.976967,16.0387926 12.9543544,15.7825055 L12.950097,15.6857864 L12.9496257,12.4035224 C10.1515219,12.5048722 8.03487429,13.8888137 6.43921709,16.1965036 C5.87785769,17.0083593 5.43333458,17.8569491 5.05286561,18.7634362 L4.9130892,19.1061242 L4.84021492,19.2940464 L4.61057856,19.904566 L4.53086798,20.1070322 C4.40223633,20.3875923 4.13235718,20.5607735 3.78420927,20.4898949 C3.43606137,20.4190163 3.36201416,20.0941383 3.33451948,19.8890959 C2.70653763,12.802994 6.36671327,7.35018732 12.9497752,6.67892391 L12.950097,4.1 C12.950097,3.49248678 13.4425838,3 14.050097,3 Z" id="路径" fill="#000000" fill-rule="nonzero"></path>
            </g>
        </g>
    </g>
</svg>