<?xml version="1.0" encoding="UTF-8"?>
<svg width="24px" height="24px" viewBox="0 0 24 24" version="1.1" xmlns="http://www.w3.org/2000/svg" xmlns:xlink="http://www.w3.org/1999/xlink">
    <title>icons_filled_book</title>
    <g id="icons_filled_book" stroke="none" stroke-width="1" fill="none" fill-rule="evenodd">
        <path d="M3.02459016,20 C3.21584699,20 3.38114754,19.9678546 3.5204918,19.9035639 C3.65983607,19.8392732 3.82786885,19.7428372 4.02459016,19.6142558 C4.50546448,19.2732355 5.03278689,19.0132774 5.60655738,18.8343816 C6.18032787,18.6554857 6.76229508,18.5660377 7.35245902,18.5660377 C7.75136612,18.5660377 8.13934426,18.6093641 8.51639344,18.6960168 C8.89344262,18.7826695 9.25546448,18.9112509 9.60245902,19.081761 C9.94945355,19.2522711 10.273224,19.4633124 10.5737705,19.7148847 C10.6830601,19.8155136 10.8087432,19.8658281 10.9508197,19.8658281 C11.0601093,19.8658281 11.1530055,19.8280922 11.2295082,19.7526205 C11.3060109,19.6771488 11.3442623,19.5779175 11.3442623,19.4549266 L11.3442623,6.62473795 C11.3442623,6.49615653 11.3319672,6.39273235 11.307377,6.31446541 C11.2827869,6.23619846 11.2295082,6.12997904 11.147541,5.99580713 C10.7486339,5.38644305 10.1612022,4.90146751 9.3852459,4.5408805 C8.60928962,4.1802935 7.7568306,4 6.82786885,4 C6.19945355,4 5.58060109,4.09503843 4.97131148,4.2851153 C4.36202186,4.47519217 3.81420765,4.74353599 3.32786885,5.09014675 C2.84153005,5.43675751 2.46721311,5.83927324 2.20491803,6.29769392 C2.12295082,6.44304682 2.06830601,6.57861635 2.04098361,6.70440252 C2.0136612,6.83018868 2,7.01327743 2,7.25366876 L2,18.918239 C2,19.2704403 2.09153005,19.5387841 2.27459016,19.7232704 C2.45765027,19.9077568 2.70765027,20 3.02459016,20 Z M20.9672131,20 C21.2896175,20 21.5423497,19.9077568 21.7254098,19.7232704 C21.9084699,19.5387841 22,19.2704403 22,18.918239 L22,7.25366876 C22,7.01327743 21.9863388,6.83018868 21.9590164,6.70440252 C21.931694,6.57861635 21.8770492,6.44304682 21.795082,6.29769392 C21.5327869,5.83927324 21.1584699,5.43675751 20.6721311,5.09014675 C20.1857923,4.74353599 19.6379781,4.47519217 19.0286885,4.2851153 C18.4193989,4.09503843 17.8005464,4 17.1721311,4 C16.2431694,4 15.3907104,4.1802935 14.6147541,4.5408805 C13.8387978,4.90146751 13.2513661,5.38644305 12.852459,5.99580713 C12.7704918,6.12997904 12.7172131,6.23619846 12.692623,6.31446541 C12.6680328,6.39273235 12.6557377,6.49615653 12.6557377,6.62473795 L12.6557377,19.4549266 C12.6557377,19.5779175 12.6939891,19.6771488 12.7704918,19.7526205 C12.8469945,19.8280922 12.9398907,19.8658281 13.0491803,19.8658281 C13.1857923,19.8658281 13.3114754,19.8155136 13.4262295,19.7148847 C13.726776,19.4633124 14.0505464,19.2522711 14.397541,19.081761 C14.7445355,18.9112509 15.1065574,18.7826695 15.4836066,18.6960168 C15.8606557,18.6093641 16.2486339,18.5660377 16.647541,18.5660377 C17.2377049,18.5660377 17.8196721,18.6554857 18.3934426,18.8343816 C18.9672131,19.0132774 19.4945355,19.2732355 19.9754098,19.6142558 C20.1721311,19.7428372 20.3401639,19.8392732 20.4795082,19.9035639 C20.6188525,19.9678546 20.7814208,20 20.9672131,20 Z" id="􀉛" fill="#000000" fill-rule="nonzero"></path>
    </g>
</svg>