<?xml version="1.0" encoding="UTF-8"?>
<svg width="24px" height="24px" viewBox="0 0 24 24" version="1.1" xmlns="http://www.w3.org/2000/svg" xmlns:xlink="http://www.w3.org/1999/xlink">
    <title>icon_filled_together_0914_X1</title>
    <g id="icon_filled_together_0914_X1" stroke="none" stroke-width="1" fill="none" fill-rule="evenodd">
        <path d="M2.95939288,7.46591381 C3.90022484,8.88942293 5.18394963,9.91526884 6.83878931,10.5612985 C8.54754355,11.2283757 10.2321241,11.5663425 11.8980291,11.5795944 L11.9998736,11.58 C13.6990011,11.58 15.4174575,11.2419895 17.1610842,10.5612985 C18.8159239,9.91526884 20.0996487,8.88942293 21.0404807,7.46591381 C21.3906768,6.93605575 22.1041017,6.79041098 22.6339597,7.14060712 C23.1638178,7.49080325 23.3094626,8.20422814 22.9592664,8.73408619 C22.4094553,9.56596823 21.7642538,10.2949931 21.0263423,10.9194658 L20.484117,16.7241252 C20.4362512,17.2382732 19.9970078,17.5261318 19.4120459,17.6983765 C18.8270839,17.8706212 17.7419402,18.079992 16.9356601,18.1959223 L16.9356601,18.1959223 L17.2368415,13.1282648 C17.2393308,13.0781972 17.2403242,13.0283895 17.2398604,12.9788857 C16.7291615,13.1555465 16.2199625,13.3043613 15.7111282,13.4279138 L15.3447026,19.2847584 C15.3172692,19.7236937 15.0062834,20.0931847 14.5784724,20.1951382 C13.7256449,20.3983794 12.887486,20.5 12.0639956,20.5 C11.2281211,20.5 10.3503322,20.3953 9.43062876,20.1858999 C8.99817406,20.0874376 8.68224313,19.7158901 8.65457698,19.2732317 L8.28949816,13.4280983 C7.77972552,13.3043419 7.26958366,13.1552295 6.75917123,12.9808382 C6.75869233,13.0433848 6.7605523,13.1081681 6.76495322,13.1733669 L7.06349113,18.1959223 C6.00162736,18.0865275 5.23463451,17.855428 4.58710532,17.6983765 C3.93957613,17.541325 3.56290003,17.2382732 3.51503424,16.7241252 L2.97353123,10.9194658 C2.23561976,10.2949931 1.59041828,9.56596823 1.04060712,8.73408619 C0.690410985,8.20422814 0.836055749,7.49080325 1.36591381,7.14060712 C1.89577186,6.79041098 2.60919675,6.93605575 2.95939288,7.46591381 Z M12,5.6 C13.3254834,5.6 14.4,6.6745166 14.4,8 C14.4,9.3254834 13.3254834,10.4 12,10.4 C10.6745166,10.4 9.6,9.3254834 9.6,8 C9.6,6.6745166 10.6745166,5.6 12,5.6 Z M6.1,4.2 C7.2045695,4.2 8.1,5.0954305 8.1,6.2 C8.1,7.3045695 7.2045695,8.2 6.1,8.2 C4.9954305,8.2 4.1,7.3045695 4.1,6.2 C4.1,5.0954305 4.9954305,4.2 6.1,4.2 Z M17.9,4.2 C19.0045695,4.2 19.9,5.0954305 19.9,6.2 C19.9,7.3045695 19.0045695,8.2 17.9,8.2 C16.7954305,8.2 15.9,7.3045695 15.9,6.2 C15.9,5.0954305 16.7954305,4.2 17.9,4.2 Z" id="形状结合" fill="#000000"></path>
        <rect id="矩形" fill="#D8D8D8" opacity="0" x="0" y="0" width="24" height="24"></rect>
    </g>
</svg>